<?xml version="1.0" standalone="no"?>
<!DOCTYPE svg PUBLIC "-//W3C//DTD SVG 20010904//EN"
 "http://www.w3.org/TR/2001/REC-SVG-20010904/DTD/svg10.dtd">
<svg version="1.0" xmlns="http://www.w3.org/2000/svg"
 width="700.000000pt" height="700.000000pt" viewBox="0 0 700.000000 700.000000"
 preserveAspectRatio="xMidYMid meet">
<metadata>
Created by potrace 1.11, written by Peter Selinger 2001-2013
</metadata>
<g transform="translate(0.000000,700.000000) scale(0.100000,-0.100000)"
fill="#000000" stroke="none">
<path d="M1620 6994 c-181 -17 -314 -46 -465 -101 -545 -196 -968 -666 -1104
-1228 -47 -198 -46 -133 -46 -2165 0 -2032 -1 -1967 46 -2165 151 -626 658
-1133 1284 -1284 198 -47 133 -46 2165 -46 2032 0 1967 -1 2165 46 626 151
1133 658 1284 1284 47 198 46 133 46 2165 0 2032 1 1967 -46 2165 -150 619
-651 1126 -1269 1280 -204 52 -92 49 -2130 51 -1042 0 -1911 0 -1930 -2z m665
-1961 c128 -39 290 -144 441 -286 l81 -76 64 66 c116 118 271 229 387 277 155
65 284 55 367 -28 55 -56 99 -150 119 -255 21 -107 21 -334 1 -466 -9 -55 -18
-118 -21 -141 l-6 -40 108 -43 c261 -103 440 -241 511 -391 42 -87 49 -142 29
-221 -22 -86 -68 -158 -148 -234 -110 -105 -243 -184 -418 -250 -41 -16 -76
-29 -77 -30 -1 0 8 -52 19 -115 30 -166 30 -452 1 -561 -27 -98 -55 -157 -100
-208 -145 -170 -432 -92 -735 198 l-98 93 -81 -76 c-194 -182 -354 -274 -518
-298 -65 -9 -85 -9 -134 6 -100 29 -170 119 -212 271 -35 128 -30 409 11 608
8 38 14 70 14 72 0 2 -24 11 -52 20 -96 31 -272 122 -353 182 -253 188 -319
397 -189 598 86 133 293 273 524 355 36 13 66 24 68 25 1 1 -7 55 -19 121 -26
150 -35 363 -21 471 42 306 194 430 437 356z m3785 -554 c322 -280 602 -528
623 -549 l37 -39 0 -227 0 -226 -32 -32 c-107 -104 -1212 -1062 -1229 -1064
-46 -8 -49 6 -49 237 l0 217 43 40 c23 23 242 213 487 424 245 211 451 388
458 394 9 9 -99 108 -488 445 l-500 433 0 217 c0 228 2 241 45 241 13 0 235
-187 605 -511z m-4506 165 c14 -13 16 -48 16 -228 0 -155 -3 -216 -12 -228 -7
-8 -213 -188 -458 -398 -245 -211 -464 -401 -487 -422 l-42 -38 482 -416 c265
-229 490 -425 500 -436 15 -18 17 -44 17 -232 0 -116 -4 -216 -8 -223 -7 -11
-26 -16 -49 -14 -16 1 -1236 1070 -1245 1090 -4 9 -7 116 -7 237 -1 198 1 224
17 242 13 15 969 854 1200 1054 37 32 54 35 76 12z m3819 -103 c6 -6 -954
-2086 -971 -2102 -4 -3 -53 16 -109 42 l-101 48 232 498 c128 274 348 748 491
1054 l259 556 95 -44 c53 -25 99 -48 104 -52z"/>
<path d="M3373 4905 c-112 -31 -254 -121 -391 -250 -45 -42 -82 -81 -82 -86 0
-5 35 -55 78 -111 42 -57 102 -140 132 -184 l55 -82 95 -12 c52 -6 146 -23
209 -36 84 -18 116 -21 122 -13 18 30 43 253 43 384 -1 312 -85 437 -261 390z"/>
<path d="M2094 4901 c-36 -16 -80 -79 -100 -144 -26 -86 -27 -388 -1 -527 10
-52 21 -98 25 -102 4 -4 57 4 117 17 61 13 154 29 208 35 l97 13 75 109 c41
60 102 143 135 185 33 41 60 79 60 84 0 12 -167 159 -242 212 -102 73 -210
119 -288 123 -36 2 -74 0 -86 -5z"/>
<path d="M2764 4414 c-62 -75 -147 -194 -142 -200 3 -2 87 -3 187 -2 l182 3
-64 90 c-36 50 -78 105 -94 124 l-29 34 -40 -49z"/>
<path d="M2579 4063 l-66 -4 -67 -117 c-82 -142 -204 -391 -212 -431 -5 -23
11 -65 79 -203 47 -95 111 -216 143 -269 l56 -96 67 -7 c85 -8 347 -8 442 0
l74 7 97 176 c53 97 118 222 144 279 l47 103 -69 142 c-75 155 -199 384 -219
405 -10 11 -64 14 -231 17 -121 1 -249 1 -285 -2z m331 -276 c54 -26 110 -86
139 -147 35 -74 37 -201 5 -271 -50 -108 -143 -173 -249 -173 -178 1 -304 166
-273 360 16 103 73 185 161 229 44 22 62 26 117 23 36 -2 81 -12 100 -21z"/>
<path d="M2230 4020 c-171 -33 -175 -34 -172 -56 6 -33 84 -269 92 -277 6 -7
190 330 190 348 0 6 4 7 -110 -15z"/>
<path d="M3262 4033 c1 -4 33 -64 70 -133 36 -69 77 -146 89 -172 13 -27 26
-48 30 -48 10 0 101 280 96 294 -3 7 -58 22 -123 35 -66 12 -130 24 -142 27
-13 3 -22 1 -20 -3z"/>
<path d="M1835 3916 c-286 -110 -477 -275 -477 -412 0 -136 182 -304 446 -415
52 -21 101 -39 108 -39 9 0 23 29 38 78 13 42 48 143 78 224 l54 146 -50 134
c-27 73 -62 172 -76 221 -30 99 -29 98 -121 63z"/>
<path d="M3671 3918 c-5 -13 -19 -57 -31 -98 -12 -41 -42 -126 -66 -188 -24
-63 -44 -122 -44 -131 0 -9 20 -66 44 -126 24 -61 59 -156 77 -212 23 -72 38
-103 49 -103 28 1 201 78 283 127 111 66 226 180 251 251 12 36 16 64 11 90
-22 122 -177 255 -419 361 -128 56 -144 59 -155 29z"/>
<path d="M3404 3239 c-25 -52 -69 -136 -97 -188 l-50 -94 39 7 c144 25 264 50
264 57 0 9 -101 302 -105 308 -2 1 -25 -39 -51 -90z"/>
<path d="M2127 3253 c-36 -98 -77 -236 -72 -241 7 -7 166 -39 234 -47 l61 -7
-45 81 c-24 44 -67 126 -95 181 -28 55 -52 100 -54 100 -2 0 -15 -30 -29 -67z"/>
<path d="M3480 2854 c-58 -12 -152 -28 -209 -35 l-103 -13 -71 -106 c-38 -58
-99 -143 -135 -189 l-66 -84 91 -87 c104 -100 244 -198 330 -230 69 -27 156
-31 198 -10 118 60 159 377 93 723 -6 31 -13 56 -17 56 -3 -1 -53 -12 -111
-25z"/>
<path d="M2001 2808 c-26 -145 -31 -200 -31 -333 0 -199 33 -314 105 -364 101
-69 308 11 527 203 133 117 128 97 46 201 -39 50 -100 134 -136 187 -72 108
-55 99 -212 119 -47 6 -127 19 -179 30 -51 10 -97 19 -101 19 -4 0 -13 -28
-19 -62z"/>
<path d="M2620 2782 c0 -4 42 -63 92 -131 l93 -123 28 33 c34 41 151 205 155
219 2 6 -65 10 -182 10 -102 0 -186 -3 -186 -8z"/>
</g>
</svg>
