<?xml version="1.0" encoding="UTF-8" standalone="no"?><!DOCTYPE svg PUBLIC "-//W3C//DTD SVG 1.1//EN" "http://www.w3.org/Graphics/SVG/1.1/DTD/svg11.dtd"><svg width="100%" height="100%" viewBox="0 0 2500 2500" version="1.1" xmlns="http://www.w3.org/2000/svg" xmlns:xlink="http://www.w3.org/1999/xlink" xml:space="preserve" xmlns:serif="http://www.serif.com/" style="fill-rule:evenodd;clip-rule:evenodd;stroke-linejoin:round;stroke-miterlimit:1.41421;"><g><path d="M2500,625c0,-344.944 -280.056,-625 -625,-625l-1250,0c-344.944,0 -625,280.056 -625,625l0,1250c0,344.944 280.056,625 625,625l1250,0c344.944,0 625,-280.056 625,-625l0,-1250Z" style="fill:#073b4c;"/><g><g transform="matrix(6.03894e-17,1,-0.435532,2.70407e-17,469.749,704.414)"><text x="113.515px" y="817.929px" style="font-family:'Helvetica';font-size:1372.43px;fill:none;">V</text></g><g transform="matrix(6.03894e-17,1,-0.435532,2.70407e-17,469.749,704.414)"><text x="113.515px" y="817.929px" style="font-family:'MavenPro-Regular', 'Maven Pro';font-size:1372.43px;fill:#ffd166;stroke:#ffd166;stroke-width:50.46px;">V</text></g></g><g><g transform="matrix(6.20746e-17,-1,0.435532,2.62965e-17,1655.28,4065.37)"><text x="2386.49px" y="1678.89px" style="font-family:'Helvetica';font-size:1372.43px;fill:none;">V</text></g><g transform="matrix(6.20746e-17,-1,0.435532,2.62965e-17,1655.28,4065.37)"><text x="2386.49px" y="1678.89px" style="font-family:'MavenPro-Regular', 'Maven Pro';font-size:1372.43px;fill:#ffd166;stroke:#ffd166;stroke-width:50.46px;">V</text></g></g><path d="M1516.97,1628.15l350.961,-753.545" style="fill:none;stroke:#ffd166;stroke-width:83.33px;stroke-miterlimit:1.5;"/><path d="M1364.62,1053.56c-12.005,-4.583 -24.111,-8.828 -36.311,-12.733c2.028,-9.15 3.894,-18.339 5.611,-27.562c27.483,-148.488 9.517,-268.111 -51.85,-307.488c-58.833,-37.767 -155.055,1.611 -252.233,95.738c-9.578,9.295 -18.939,18.862 -28.084,28.684c-6.122,-6.534 -12.35,-12.939 -18.688,-19.211c-101.845,-100.656 -203.934,-143.067 -265.234,-103.573c-58.778,37.873 -76.183,150.334 -51.444,291.056c2.461,13.933 5.244,27.8 8.339,41.578c-14.45,4.566 -28.4,9.433 -41.745,14.611c-119.4,46.333 -195.661,118.955 -195.661,194.278c0,77.8 81.861,155.833 206.233,203.144c10.084,3.817 20.25,7.356 30.495,10.611c-3.328,14.845 -6.278,29.789 -8.856,44.817c-23.589,138.278 -5.166,248.072 53.456,285.711c60.55,38.861 162.172,-1.083 261.128,-97.361c7.822,-7.611 15.672,-15.683 23.539,-24.145c9.9,10.634 20.066,20.956 30.483,30.962c95.855,91.805 190.522,128.877 249.094,91.138c60.495,-38.977 80.15,-156.927 54.623,-300.433c-1.945,-10.961 -4.217,-22.155 -6.762,-33.555c7.139,-2.345 14.139,-4.767 20.973,-7.289c129.294,-47.678 213.416,-124.761 213.416,-203.6c0,-75.595 -78.716,-148.706 -200.522,-195.378Z" style="fill:#06d6a0;fill-rule:nonzero;"/><path d="M1336.57,1401.47c-6.161,2.272 -12.489,4.467 -18.939,6.595c-14.278,-50.295 -33.544,-103.778 -57.111,-159.028c22.495,-53.945 41.011,-106.739 54.889,-156.711c11.533,3.722 22.733,7.639 33.528,11.777c104.366,39.984 168.028,99.112 168.028,144.667c-0,48.528 -68.756,111.528 -180.389,152.7l-0.006,0Zm-46.317,102.161c11.284,63.456 12.895,120.828 5.423,165.678c-6.723,40.3 -20.228,67.167 -36.928,77.928c-35.545,22.9 -111.556,-6.867 -193.522,-85.378c-9.4,-9 -18.867,-18.611 -28.361,-28.778c31.777,-38.689 63.538,-83.666 94.533,-133.611c54.528,-5.383 106.039,-14.189 152.75,-26.205c2.294,10.333 4.344,20.461 6.105,30.366Zm-468.433,239.65c-34.728,13.65 -62.383,14.039 -79.1,3.311c-35.578,-22.833 -50.361,-111 -30.194,-229.25c2.4,-13.972 5.144,-27.872 8.239,-41.677c46.194,11.372 97.327,19.555 151.983,24.488c31.2,48.873 63.878,93.795 96.811,133.134c-7,7.533 -14.161,14.878 -21.483,22.022c-43.761,42.578 -87.611,72.778 -126.256,87.972Zm-162.683,-342.111c-54.995,-20.922 -100.411,-48.111 -131.545,-77.778c-27.972,-26.666 -42.094,-53.139 -42.094,-74.622c-0,-45.705 61.228,-104.011 163.344,-143.639c12.817,-4.95 25.761,-9.483 38.817,-13.594c14.117,51.094 32.628,104.516 54.972,158.539c-22.633,54.827 -41.411,109.1 -55.655,160.794c-9.35,-2.978 -18.634,-6.211 -27.839,-9.7Zm54.533,-413.167c-21.2,-120.572 -7.122,-211.522 28.3,-234.344c37.733,-24.311 121.167,10.356 209.1,97.261c5.622,5.556 11.267,11.372 16.922,17.389c-32.761,39.161 -65.139,83.744 -96.072,132.333c-53.044,5.473 -103.817,14.261 -150.5,26.034c-2.872,-12.817 -5.455,-25.717 -7.75,-38.678l0,0.005Zm486.489,133.706c-11.022,-21.2 -22.461,-42.128 -34.294,-62.778c35.988,5.056 70.461,11.778 102.833,20.006c-9.717,34.672 -21.828,70.928 -36.095,108.094c-10.422,-22.011 -21.238,-43.789 -32.444,-65.322Zm-198.389,-215.078c22.222,26.795 44.478,56.717 66.367,89.178c-44.406,-2.333 -88.889,-2.344 -133.295,-0.033c21.911,-32.161 44.356,-62.039 66.928,-89.145Zm-199.661,215.445c-11.067,21.361 -21.678,43.005 -31.839,64.916c-14.028,-37.039 -26.033,-73.455 -35.833,-108.622c32.178,-8.017 66.494,-14.567 102.244,-19.539c-11.966,20.778 -23.494,41.867 -34.572,63.245Zm35.6,320.461c-36.933,-4.589 -71.767,-10.806 -103.939,-18.6c9.956,-35.789 22.228,-72.989 36.556,-110.822c10.2,21.927 20.861,43.583 31.977,64.955c11.339,21.8 23.145,43.295 35.406,64.467Zm165.394,152.161c-22.838,-27.428 -45.611,-57.761 -67.855,-90.389c21.589,0.944 43.605,1.422 65.983,1.422c22.989,0 45.717,-0.572 68.084,-1.683c-21.967,33.222 -44.139,63.6 -66.212,90.65Zm229.962,-283.511c15.072,38.244 27.777,75.244 37.872,110.428c-32.706,8.305 -68.006,14.994 -105.206,19.961c11.917,-21.034 23.461,-42.334 34.622,-63.878c11.345,-21.9 22.25,-44.072 32.712,-66.511Zm-74.45,39.722c-17.084,33.033 -35.128,65.439 -54.106,97.167c-33.461,2.661 -68.039,4.033 -103.278,4.033c-35.094,-0 -69.233,-1.217 -102.111,-3.589c-19.472,-31.655 -37.855,-64.117 -55.122,-97.317c-17.183,-33.022 -33.233,-66.761 -48.117,-101.144c14.845,-34.389 30.85,-68.15 47.972,-101.2l0,0.011c17.123,-33.061 35.362,-65.383 54.684,-96.9c33.544,-2.822 67.933,-4.3 102.7,-4.3c34.916,0 69.355,1.489 102.883,4.333c19.128,31.467 37.256,63.678 54.345,96.573c17.183,32.977 33.394,66.572 48.616,100.722c-15.061,34.5 -31.228,68.394 -48.461,101.611l-0.005,-0Zm99.394,-598.844c37.767,24.244 52.456,122.005 28.722,250.211c-1.55,8.35 -3.244,16.672 -5.066,24.955c-46.789,-12.016 -97.6,-20.961 -150.8,-26.516c-30.989,-49.117 -63.1,-93.778 -95.334,-132.434c8.445,-9.061 17.095,-17.894 25.934,-26.478c83.266,-80.655 161.083,-112.5 196.544,-89.738Z" style="fill:#073b4c;fill-rule:nonzero;"/><path d="M1001.24,1136.85c55.622,0 100.711,50.189 100.711,112.095c0,61.911 -45.089,112.1 -100.711,112.1c-55.616,-0 -100.711,-50.189 -100.711,-112.1c0,-61.906 45.095,-112.095 100.711,-112.095" style="fill:#06d6a0;fill-rule:nonzero;"/></g></svg>