<?xml version="1.0" encoding="UTF-8" standalone="no"?><!DOCTYPE svg PUBLIC "-//W3C//DTD SVG 1.1//EN" "http://www.w3.org/Graphics/SVG/1.1/DTD/svg11.dtd"><svg width="100%" height="100%" viewBox="0 0 777 151" version="1.1" xmlns="http://www.w3.org/2000/svg" xmlns:xlink="http://www.w3.org/1999/xlink" xml:space="preserve" style="fill-rule:evenodd;clip-rule:evenodd;stroke-linejoin:round;stroke-miterlimit:1.41421;"><g transform="matrix(1.03193e-16,1.68528,-1,6.12323e-17,349.5,-77.1718)"><path d="M86.164,346l7.183,0l37.379,-94.254l-7.769,0l-33.128,83.846l-33.275,-83.846l-7.769,0l37.379,94.254Z" style="fill:none;"/><path d="M86.164,346l7.183,0l37.379,-94.254l-7.769,0l-33.128,83.846l-33.275,-83.846l-7.769,0l37.379,94.254Z" style="fill:#ffd166;fill-rule:nonzero;stroke:#ffd166;stroke-width:5.05px;"/></g><g transform="matrix(-3.0958e-16,-1.68528,1,-1.83697e-16,426.655,227.809)"><path d="M86.164,346l7.183,0l37.379,-94.254l-7.769,0l-33.128,83.846l-33.275,-83.846l-7.769,0l37.379,94.254Z" style="fill:none;"/><path d="M86.164,346l7.183,0l37.379,-94.254l-7.769,0l-33.128,83.846l-33.275,-83.846l-7.769,0l37.379,94.254Z" style="fill:#ffd166;fill-rule:nonzero;stroke:#ffd166;stroke-width:5.05px;"/></g><g transform="matrix(1,0,0,1,-420.954,-300.058)"><path d="M545.852,367.052c0,-18.06 8.686,-24.51 21.844,-24.51c5.504,0 10.922,1.204 16.082,3.182l0,-4.042c-5.246,-2.064 -10.836,-3.182 -16.598,-3.182c-15.136,0 -25.542,8.256 -25.542,28.552c0,20.296 10.406,28.38 25.628,28.38c5.59,0 11.266,-1.118 16.512,-3.01l0,-4.042c-5.16,1.978 -10.578,3.01 -16.082,3.01c-13.072,0 -21.844,-6.278 -21.844,-24.338Z" style="fill:none;"/><path d="M613.878,352.174c-5.504,0 -10.578,1.72 -14.362,3.354l0,-18.662l-4.3,0l0,57.792l4.3,0l0,-35.002c3.526,-1.548 8.514,-3.182 13.846,-3.182c7.912,0 12.04,3.87 12.04,12.642l0,25.542l4.214,0l0,-25.542c0,-11.18 -5.762,-16.942 -15.738,-16.942Z" style="fill:none;"/><path d="M662.296,356.388l0,-4.128c-9.546,0.086 -17.2,2.924 -19.608,3.956l0,38.442l4.214,0l0,-35.69c3.268,-0.946 8.858,-2.408 15.394,-2.58Z" style="fill:none;"/><path d="M671.756,345.208l4.73,0l0,-6.364l-4.73,0l0,6.364Zm0.258,49.45l4.214,0l0,-41.71l-4.214,0l0,41.71Z" style="fill:none;"/><path d="M692.052,363.784c0,-5.418 4.816,-7.482 10.32,-7.482c4.472,0 8.17,1.29 10.836,2.58l0,-4.214c-3.01,-1.29 -6.794,-2.494 -11.266,-2.494c-10.148,0 -14.19,5.676 -14.19,11.61c0,14.706 23.65,7.568 23.65,20.038c0,4.902 -4.644,7.31 -11.008,7.31c-4.73,0 -9.116,-1.29 -12.9,-3.268l0,4.472c3.268,1.634 7.568,3.01 13.072,3.01c9.976,0 15.136,-4.816 15.136,-11.524c0,-16.168 -23.65,-9.89 -23.65,-20.038Z" style="fill:none;"/><path d="M741.33,365.16l23.564,-25.8l-5.676,0l-27.778,30.702l0,-30.702l-4.214,0l0,55.212l4.214,0l0,-18.662l7.138,-7.74l22.79,26.488l5.59,0l-25.628,-29.498Z" style="fill:none;"/><path d="M791.038,352.26c-16.512,0 -18.576,15.738 -18.576,22.36c0,16.598 10.32,20.64 19.78,20.64c4.73,0 10.062,-0.86 13.932,-2.666l0,-4.386c-3.44,1.892 -8.514,2.924 -13.588,2.924c-8.084,0 -13.76,-3.096 -14.964,-11.18c-0.43,-1.032 -0.688,-2.236 -0.774,-3.698l32.078,0c0,-0.086 0.086,-0.344 0.086,-2.236c0,-2.752 -0.172,-21.758 -17.974,-21.758Zm-0.258,4.042c13.33,0 13.846,14.104 13.846,16.168l-27.778,0c0.43,-10.148 4.902,-16.168 13.932,-16.168Z" style="fill:none;"/><path d="M838.166,352.174c-8.084,0 -14.964,2.924 -17.888,4.472l0,38.012l4.214,0l0,-35.518c3.526,-1.376 8.17,-2.666 13.244,-2.666c9.718,0 12.298,4.902 12.298,11.008l0,27.176l4.3,0l0,-27.176c0,-10.148 -5.934,-15.308 -16.168,-15.308Z" style="fill:none;"/><path d="M888.046,356.388l0,-4.128c-9.546,0.086 -17.2,2.924 -19.608,3.956l0,38.442l4.214,0l0,-35.69c3.268,-0.946 8.858,-2.408 15.394,-2.58Z" style="fill:none;"/><path d="M897.506,345.208l4.73,0l0,-6.364l-4.73,0l0,6.364Zm0.258,49.45l4.214,0l0,-41.71l-4.214,0l0,41.71Z" style="fill:none;"/><path d="M918.404,373.76c0,-13.072 6.278,-17.458 15.738,-17.458c3.956,0 7.998,0.86 11.696,2.236l0,-4.128c-3.87,-1.376 -7.998,-2.236 -12.126,-2.236c-8.858,0 -19.522,3.698 -19.522,21.586c0,17.974 10.664,21.586 19.522,21.586c4.128,0 8.256,-0.774 12.126,-2.236l0,-4.128c-3.698,1.462 -7.74,2.236 -11.696,2.236c-9.46,0 -15.738,-4.3 -15.738,-17.458Z" style="fill:none;"/><path d="M969.316,371.868l17.802,-18.92l-5.762,0l-20.812,22.274l0,-38.356l-4.3,0l0,57.792l4.3,0l0,-13.416l5.934,-6.364l17.286,19.78l5.676,0l-20.124,-22.79Z" style="fill:none;"/><path d="M545.852,367.052c0,-18.06 8.686,-24.51 21.844,-24.51c5.504,0 10.922,1.204 16.082,3.182l0,-4.042c-5.246,-2.064 -10.836,-3.182 -16.598,-3.182c-15.136,0 -25.542,8.256 -25.542,28.552c0,20.296 10.406,28.38 25.628,28.38c5.59,0 11.266,-1.118 16.512,-3.01l0,-4.042c-5.16,1.978 -10.578,3.01 -16.082,3.01c-13.072,0 -21.844,-6.278 -21.844,-24.338Z" style="fill:#06d6a0;fill-rule:nonzero;stroke:#06d6a0;stroke-width:3.5px;"/><path d="M613.878,352.174c-5.504,0 -10.578,1.72 -14.362,3.354l0,-18.662l-4.3,0l0,57.792l4.3,0l0,-35.002c3.526,-1.548 8.514,-3.182 13.846,-3.182c7.912,0 12.04,3.87 12.04,12.642l0,25.542l4.214,0l0,-25.542c0,-11.18 -5.762,-16.942 -15.738,-16.942Z" style="fill:#06d6a0;fill-rule:nonzero;stroke:#06d6a0;stroke-width:3.5px;"/><path d="M662.296,356.388l0,-4.128c-9.546,0.086 -17.2,2.924 -19.608,3.956l0,38.442l4.214,0l0,-35.69c3.268,-0.946 8.858,-2.408 15.394,-2.58Z" style="fill:#06d6a0;fill-rule:nonzero;stroke:#06d6a0;stroke-width:3.5px;"/><path d="M671.756,345.208l4.73,0l0,-6.364l-4.73,0l0,6.364Zm0.258,49.45l4.214,0l0,-41.71l-4.214,0l0,41.71Z" style="fill:#06d6a0;fill-rule:nonzero;stroke:#06d6a0;stroke-width:3.5px;"/><path d="M692.052,363.784c0,-5.418 4.816,-7.482 10.32,-7.482c4.472,0 8.17,1.29 10.836,2.58l0,-4.214c-3.01,-1.29 -6.794,-2.494 -11.266,-2.494c-10.148,0 -14.19,5.676 -14.19,11.61c0,14.706 23.65,7.568 23.65,20.038c0,4.902 -4.644,7.31 -11.008,7.31c-4.73,0 -9.116,-1.29 -12.9,-3.268l0,4.472c3.268,1.634 7.568,3.01 13.072,3.01c9.976,0 15.136,-4.816 15.136,-11.524c0,-16.168 -23.65,-9.89 -23.65,-20.038Z" style="fill:#06d6a0;fill-rule:nonzero;stroke:#06d6a0;stroke-width:3.5px;"/><path d="M741.33,365.16l23.564,-25.8l-5.676,0l-27.778,30.702l0,-30.702l-4.214,0l0,55.212l4.214,0l0,-18.662l7.138,-7.74l22.79,26.488l5.59,0l-25.628,-29.498Z" style="fill:#06d6a0;fill-rule:nonzero;stroke:#06d6a0;stroke-width:3.5px;"/><path d="M791.038,352.26c-16.512,0 -18.576,15.738 -18.576,22.36c0,16.598 10.32,20.64 19.78,20.64c4.73,0 10.062,-0.86 13.932,-2.666l0,-4.386c-3.44,1.892 -8.514,2.924 -13.588,2.924c-8.084,0 -13.76,-3.096 -14.964,-11.18c-0.43,-1.032 -0.688,-2.236 -0.774,-3.698l32.078,0c0,-0.086 0.086,-0.344 0.086,-2.236c0,-2.752 -0.172,-21.758 -17.974,-21.758Zm-0.258,4.042c13.33,0 13.846,14.104 13.846,16.168l-27.778,0c0.43,-10.148 4.902,-16.168 13.932,-16.168Z" style="fill:#06d6a0;fill-rule:nonzero;stroke:#06d6a0;stroke-width:3.5px;"/><path d="M838.166,352.174c-8.084,0 -14.964,2.924 -17.888,4.472l0,38.012l4.214,0l0,-35.518c3.526,-1.376 8.17,-2.666 13.244,-2.666c9.718,0 12.298,4.902 12.298,11.008l0,27.176l4.3,0l0,-27.176c0,-10.148 -5.934,-15.308 -16.168,-15.308Z" style="fill:#06d6a0;fill-rule:nonzero;stroke:#06d6a0;stroke-width:3.5px;"/><path d="M888.046,356.388l0,-4.128c-9.546,0.086 -17.2,2.924 -19.608,3.956l0,38.442l4.214,0l0,-35.69c3.268,-0.946 8.858,-2.408 15.394,-2.58Z" style="fill:#06d6a0;fill-rule:nonzero;stroke:#06d6a0;stroke-width:3.5px;"/><path d="M897.506,345.208l4.73,0l0,-6.364l-4.73,0l0,6.364Zm0.258,49.45l4.214,0l0,-41.71l-4.214,0l0,41.71Z" style="fill:#06d6a0;fill-rule:nonzero;stroke:#06d6a0;stroke-width:3.5px;"/><path d="M918.404,373.76c0,-13.072 6.278,-17.458 15.738,-17.458c3.956,0 7.998,0.86 11.696,2.236l0,-4.128c-3.87,-1.376 -7.998,-2.236 -12.126,-2.236c-8.858,0 -19.522,3.698 -19.522,21.586c0,17.974 10.664,21.586 19.522,21.586c4.128,0 8.256,-0.774 12.126,-2.236l0,-4.128c-3.698,1.462 -7.74,2.236 -11.696,2.236c-9.46,0 -15.738,-4.3 -15.738,-17.458Z" style="fill:#06d6a0;fill-rule:nonzero;stroke:#06d6a0;stroke-width:3.5px;"/><path d="M969.316,371.868l17.802,-18.92l-5.762,0l-20.812,22.274l0,-38.356l-4.3,0l0,57.792l4.3,0l0,-13.416l5.934,-6.364l17.286,19.78l5.676,0l-20.124,-22.79Z" style="fill:#06d6a0;fill-rule:nonzero;stroke:#06d6a0;stroke-width:3.5px;"/></g><path d="M591.416,143.138l64.055,-135.638" style="fill:#ffd166;stroke:#ffd166;stroke-width:15px;stroke-miterlimit:1.5;"/></svg>